<svg width="198" height="66" viewBox="0 0 198 66" fill="none" xmlns="http://www.w3.org/2000/svg">
<path d="M189.647 4.56613C189.647 4.56613 193.79 -1.52186 197.05 4.87091C197.05 8.70671 193.926 11.5075 189.647 11.5075C185.367 11.5075 182.38 8.70667 182.38 4.87086C185.299 -1.52182 190.034 4.54639 189.647 4.56613ZM195.692 15.465V51.2659H183.601V15.465H195.692Z" fill="#9f9f9f"/>
<path d="M174.532 0V51.1441H162.441V0H174.532Z" fill="#9f9f9f"/>
<path d="M112.037 51.1439V1.52197H133.298C147.698 1.52197 156.12 8.70649 156.12 19.6659C156.12 30.7472 147.698 37.9317 133.298 37.9317H124.399V51.1439H112.037ZM124.399 28.1291H132.754C139.615 28.1291 143.758 25.2065 143.758 19.6659C143.758 14.1862 139.615 11.3246 132.754 11.3246H124.399V28.1291Z" fill="#9f9f9f"/>
<path d="M94.0146 15.465C98.5844 13.8618 106.581 15.465 106.581 15.465L83.69 66.0002H71.8031L79.0032 50.1699L63.3125 15.465H76.6937C76.6937 15.465 88.9263 39.2409 85.3202 37.5056C81.7141 35.7704 84.53 18.7925 94.0146 15.465Z" fill="#9f9f9f"/>
<path d="M0 51.1438V1.52187C0 1.52187 6.0788 0.83985 9.84911 1.52187C23.7766 4.04124 29.0721 21.3099 29.0721 21.3099C29.0721 21.3099 34.0955 4.04124 48.0229 1.52187C51.7932 0.839851 57.872 1.52187 57.872 1.52187V51.1438H45.5097V23.9278L32.6719 42.9851L29.0721 48.7085L25.2001 42.9851L12.3623 23.9278V51.1438H0Z" fill="#9f9f9f"/>
</svg>
